<?xml version="1.0" encoding="utf-8"?>
<!-- Generator: Adobe Illustrator 24.1.1, SVG Export Plug-In . SVG Version: 6.00 Build 0)  -->
<svg version="1.1" id="Layer_1" xmlns="http://www.w3.org/2000/svg" xmlns:xlink="http://www.w3.org/1999/xlink" x="0px" y="0px"
	 viewBox="0 0 162.9 186.6" style="enable-background:new 0 0 162.9 186.6;" xml:space="preserve">
<style type="text/css">
	.st0{fill:#5f42e0;}
</style>
<path fill="#ffffff" d="M160.2,51.1l0.1,85.4c0,1.4-0.7,2.7-1.9,3.4l-73.9,42.8c-1.2,0.7-2.7,0.7-3.9,0L6.5,140c-1.2-0.7-1.9-2-1.9-3.4L4.5,51.3
	c0-1.4,0.7-2.7,1.9-3.3L80.3,5.1c1.2-0.7,2.7-0.7,3.9,0l74,42.6C159.4,48.4,160.2,49.7,160.2,51.1z"/>
<path class="st0" d="M116.1,130.9l12.1-6.9c0.8-0.5,1.3-1.3,1.3-2.3V64.8c0-0.9-0.5-1.8-1.3-2.3l-9.8-5.7c-0.8-0.5-1.9-0.5-2.7,0
	L82.4,77.4v22.1l25.8-16.8c1.7-1.1,4,0.1,4,2.2l0,43.8C112.2,130.6,114.3,131.9,116.1,130.9z"/>
<path class="st0" d="M52.6,128.6l0-43.8c0-2.1,2.3-3.3,4-2.2l25.8,16.8V77.4L49.1,56.9c-0.8-0.5-1.8-0.5-2.7,0l-9.8,5.7
	c-0.8,0.5-1.3,1.3-1.3,2.3v56.9c0,0.9,0.5,1.8,1.3,2.3l12.1,6.9C50.4,131.9,52.6,130.6,52.6,128.6z"/>
</svg>
